<?xml version="1.0" encoding="UTF-8" standalone="no"?><!DOCTYPE svg PUBLIC "-//W3C//DTD SVG 1.1//EN" "http://www.w3.org/Graphics/SVG/1.1/DTD/svg11.dtd"><svg width="100%" height="100%" viewBox="0 0 1440 768" version="1.1" xmlns="http://www.w3.org/2000/svg" xmlns:xlink="http://www.w3.org/1999/xlink" xml:space="preserve" xmlns:serif="http://www.serif.com/" style="fill-rule:evenodd;clip-rule:evenodd;stroke-linecap:round;stroke-linejoin:round;stroke-miterlimit:1.5;"><path d="M541,299l-61,0l0,-17l16,0l0,17l15,0l0,-17l16,0l0,17l14,0l0,-13l11,0l-1,-23l-10,0l0,-23l-4,0l0,-26l-5,0l0,-47l-9,0l0,-59l-11,0l0,-57l-15,0l0,57l-10,0l-1,60l-7,0l0,48l-7,0l1,24l-6,0l0,23l-11,0l1,23l11,0l0,156l-27,0l0,-143l-11,-10l-55,0l-11,10l0,20.953l33,0.047l0,18l-15,0l0,-18l-18,0l0,-0.047l0,64.047l33,0l0,21l-16.5,0l0,-21l-16.5,0l0,25l-31,0l0,-41l-9,0l0,-23l-14,0l0,21l-14,0l0,-21l28,0l0,-31l-14,0l0,20l-15,0l0,-20l-17,0l0,20l-15,0l0,-20l61,0l0,-32l-14,0l0,21l-15,0l0,-21l29,0l0,-52l-8,0l0,-11l-25,0l0,12l-52,0l0,173l-22,0l0,110l-44,0l0,-78l-53,0l0,19l-16,0l0,-19l-16,0l0,19l-17,0l0,-19l102,0l0,-13l-101,0l0,-22l16,0l0,22l17,0l0,-22l15,0l0,22l53,0l0,-34l-68,0l0,-19l15,0l0,19l53,0l0,-21l-25,0l0,-35l-21,0l0,-36l-25,0l0,-59l-27,-60l-20,0l-23,60l0,59l-23,0l0,9l16,0l0,20l-16,0l0,12l16,0l0,19l-16,0l0,14l16,0l0,20l-16,0l0,13l16,0l0,18l-16,0l0,-125l-59,0l0,471l1540,0l0,-326l-71,0l0,-144l-11,0l0,-12l-49,0l0,34l19,0l0,21l-19,0l0,43l19,0l0,21l-19,0l0,14l19,0l0,18l-19,0l0,-151l-6,0l0,11l-9,0l0,113l-31,0l0,-42l-8,0l0,-138l-57,0l0,84l15,0l0,19l-15,0l0,45l15,0l0,21l-15,0l0,10.817l15,0l0,21.183l-15,0l0,-201l-12.584,0l-17.416,20.132l0,159.868l-18,0l-1,106l-47,0l0,-80l-53,0l0,17l-15,0l0,-17l-17.148,0l0.148,17l-15,0l0,-17l100,0l0,-35l-53.002,0l0.002,21l-16,0l0.005,-21l-16.001,0l-0.004,21l-15,0l-0,-21l100,0l-0,-11l-68,0l-0,-21l15,0l0.142,21l52.858,0l-0,-21l-22,0l-0,-73l-50,0l-0,-60l-14,-29l-41,0l-12,29l-0,62l-10,0l-0,124l-14,0l-0,-20l14,0l-0,-12l-14,0l-0,-20l14,0l-0,-13l-14,0l-0,-19l14,0l-0,-12l-14,0l-0,-20l14,0l-0,-8l-22,0l-0,70l-26,-1l1,-125l-17,0l-0,-45l-8,0l-0,-25l-16,0l-0,312l-12,0l-0,-25l12,-0.021l-0,-14.979l-12,0l-0,-25l12,0l-0,-15l-12,0l-0,-25l12,0l-0,-54l-12,0l-0,-26l12,0l-0,-14l-12,0l-0,-25l12,0l-0,-101l-9,0l-0,-65l-20,0l-0,66l-10,0l-0,311l-13,0l-0,-25l13,0l-0,-15l-13,0l-0,-26l13,0l-0,-13l-13,0l-0,-26l13,0l-0,-15l-13,0l-0,-25l13,0l-0,-54l-13,0l-0,-26l13,0l-0,-15l-13,0l-0,-25l13,0l-0,-32l-18,0l-0,25l-7,0c-0,-0 1,290 1,290l-58,0l-0,-55l-39,0l-0,-44l-25,0l-0,22l13,0l-0,19l-13,0l-0,13l13,0l-0,18l-13,0l-0,14l13,0l-0,18l-13,0l-0,-104l-6,0l-0,-82.03l-12,0.03l-0,20l-16,0l-0,-20l28,-0.03l-0,-32.04l-13,0.07l-0,19l-14,0l-0,-19l27,-0.07l-0,-32.93l-53,0l-0,21l-34,0l-0,64l-24,0l-0,81.817l18,0l-0,21.183l-18,0l-0,12l17,0l-0,19l-17,0l-0,14l18,0l-0,17l-18,0l-0,-165l-9,0l-0,56l-27,0l2,128l-38,0l-0,-213Z" style="stroke:#000;stroke-width:1px;"/></svg>